<svg width="120" height="36" viewBox="0 0 120 36" fill="none" xmlns="http://www.w3.org/2000/svg">
<path d="M0.0693359 12.2129C0.0693359 5.72943 5.22566 0.495605 11.568 0.495605C16.5387 0.495605 20.7669 3.75633 22.3625 8.30929H19.2471C17.8371 5.42745 14.9064 3.41729 11.5707 3.41729C6.82403 3.41729 2.96616 7.36072 2.96616 12.2166C2.96616 17.0725 6.82403 21.0159 11.5707 21.0159C14.9101 21.0159 17.8399 19.0058 19.2471 16.1239H22.3625C20.7669 20.6741 16.5396 23.9376 11.568 23.9376C5.22566 23.9348 0.0693359 18.701 0.0693359 12.2138V12.2129Z" fill="#41283D"/>
<path d="M11.5681 24.0053C5.18924 24.0053 0 18.715 0 12.2139C0 5.71285 5.19016 0.425293 11.5681 0.425293C16.4154 0.425293 20.7789 3.58319 22.4267 8.28437L22.4605 8.37793H19.2025L19.1824 8.3381C17.7385 5.39048 14.7493 3.48592 11.5672 3.48592C6.8626 3.48592 3.03216 7.40157 3.03216 12.2139C3.03216 17.0262 6.86169 20.9419 11.5672 20.9419C14.7521 20.9419 17.7413 19.0364 19.1824 16.0897L19.2025 16.0499H22.4605L22.4267 16.1434C20.7807 20.8446 16.4154 24.0025 11.5681 24.0025M11.5681 0.567023C5.26514 0.567023 0.139895 5.79251 0.139895 12.2139C0.139895 18.6353 5.26514 23.8608 11.5681 23.8608C16.323 23.8608 20.6107 20.7826 22.2612 16.1898H19.2893C17.8172 19.1624 14.7923 21.0818 11.5681 21.0818C6.78488 21.0818 2.89318 17.1041 2.89318 12.2121C2.89318 7.32005 6.78488 3.3479 11.5681 3.3479C14.7896 3.3479 17.8144 5.26728 19.2893 8.23991H22.2612C20.607 3.64711 16.323 0.568876 11.5681 0.568876V0.567023Z" fill="#41283D"/>
<path d="M36.7541 8.3833H39.8694L33.7484 24.0079L30.7089 31.8216H27.5908L30.6696 24.0079L24.5879 8.3833H27.6667L32.2286 20.0265L36.7541 8.3833Z" fill="#41283D"/>
<path d="M29.9602 33.8348H26.694L30.593 24.0082L24.4839 8.31226H27.7108L27.7273 8.35765L32.2243 19.8332L36.7022 8.31226H39.9684L39.9291 8.40859L33.8081 24.0332M33.6837 23.9822L39.7654 8.45491H36.7991L32.2262 20.2185L32.1621 20.0536L27.6175 8.45584H24.6905L30.7466 24.0091L30.7357 24.035" fill="#41283D"/>
<path d="M57.3759 16.1573C57.3759 20.4796 53.9633 23.971 49.736 23.971C45.5088 23.971 42.0962 20.4824 42.0962 16.1573V0.532715H44.9894V10.0916C46.2878 8.99206 47.9557 8.3464 49.736 8.3464C53.9642 8.3464 57.3759 11.8748 57.3759 16.1573ZM54.5193 16.1573C54.5193 13.4663 52.3686 11.3024 49.736 11.3024C47.1035 11.3024 44.9894 13.4635 44.9894 16.1573C44.9894 18.8511 47.1035 21.0493 49.736 21.0493C52.3686 21.0493 54.5193 18.8483 54.5193 16.1573Z" fill="#41283D"/>
<path d="M49.7352 24.0424C45.485 24.0424 42.0249 20.5056 42.0249 16.1573V0.461426H45.0561V9.94067C46.3793 8.86426 48.0335 8.27511 49.7324 8.27511C53.9826 8.27511 57.4427 11.8119 57.4427 16.1573C57.4427 20.5028 53.9826 24.0424 49.7324 24.0424M42.1648 0.606861V16.1601C42.1648 20.4287 45.56 23.9025 49.7352 23.9025C53.9103 23.9025 57.3055 20.4287 57.3055 16.1601C57.3055 11.8915 53.9103 8.42055 49.7352 8.42055C48.0188 8.42055 46.3482 9.03564 45.0333 10.1491L44.9181 10.2454V0.606861H42.1648ZM49.7352 21.1235C47.0797 21.1235 44.9181 18.8965 44.9181 16.1601C44.9181 13.4237 47.0797 11.2338 49.7352 11.2338C52.3906 11.2338 54.5888 13.4432 54.5888 16.1601C54.5888 18.8771 52.4107 21.1235 49.7352 21.1235ZM49.7352 11.3765C47.1556 11.3765 45.0589 13.5238 45.0589 16.1601C45.0589 18.7965 47.1565 20.9808 49.7352 20.9808C52.3138 20.9808 54.4507 18.8169 54.4507 16.1601C54.4507 13.5034 52.3366 11.3765 49.7352 11.3765Z" fill="#41283D"/>
<path d="M59.6055 16.16C59.6055 11.8748 63.018 8.34912 67.2453 8.34912C71.4726 8.34912 74.8852 11.8776 74.8852 16.16C74.8852 16.6927 74.8093 17.1855 74.737 17.6403H62.6833C63.2777 19.6106 65.0946 21.0548 67.2453 21.0548C68.5803 21.0548 69.7663 20.4851 70.6579 19.6144H74.1061C72.8808 22.1942 70.2482 23.9765 67.2453 23.9765C63.0171 23.9765 59.6055 20.4879 59.6055 16.1628M62.6843 14.7223H71.8082C71.1772 12.752 69.3603 11.3079 67.2462 11.3079C65.1321 11.3079 63.2786 12.7483 62.6843 14.7223Z" fill="#41283D"/>
<path d="M67.2415 24.0424C62.9914 24.0424 59.5312 20.5056 59.5312 16.1574C59.5312 11.8091 62.9914 8.27515 67.2415 8.27515C71.4917 8.27515 74.9518 11.8119 74.9518 16.1574C74.9518 16.6845 74.8823 17.1625 74.8036 17.6497L74.7927 17.7099H62.7756C63.401 19.6404 65.2234 20.9818 67.2415 20.9818C68.475 20.9818 69.6693 20.4778 70.6056 19.5608L70.6248 19.5404H74.2138L74.1663 19.6432C72.8989 22.3176 70.1795 24.0452 67.2415 24.0452M67.2415 8.42058C63.0663 8.42058 59.6712 11.8916 59.6712 16.1602C59.6712 20.4287 63.0663 23.9025 67.2415 23.9025C70.0871 23.9025 72.7252 22.2509 73.9898 19.6849H70.6815C69.7223 20.6159 68.5034 21.1253 67.2415 21.1253C65.1302 21.1253 63.2264 19.7016 62.6128 17.6627L62.5845 17.5719H74.6747C74.7479 17.1134 74.8119 16.6576 74.8119 16.162C74.8119 11.8934 71.4167 8.42243 67.2424 8.42243M71.9013 14.7929H62.5872L62.6155 14.7021C63.2291 12.6632 65.1329 11.2394 67.2443 11.2394C69.3556 11.2394 71.2118 12.6317 71.873 14.7021L71.9041 14.7957L71.9013 14.7929ZM62.7756 14.6512H71.7084C71.0463 12.7207 69.2239 11.3793 67.2415 11.3793C65.2591 11.3793 63.4001 12.7207 62.7756 14.6512Z" fill="#41283D"/>
<path d="M85.3229 8.34644V11.2653C82.6903 11.2653 80.5762 13.4663 80.5762 16.1573V23.971H77.6821V16.1573C77.6821 11.835 81.1304 8.34644 85.322 8.34644H85.3229Z" fill="#41283D"/>
<path d="M80.6475 24.0424H77.6162V16.1574C77.6162 11.8091 81.0763 8.27515 85.3265 8.27515H85.396V11.3358H85.3265C82.7469 11.3358 80.6502 13.4997 80.6502 16.1565V24.0415H80.6475V24.0424ZM77.7534 23.8997H80.5067V16.1574C80.5067 13.4441 82.629 11.2339 85.2533 11.194V8.4178C81.112 8.45486 77.7534 11.9147 77.7534 16.1574V23.8997Z" fill="#41283D"/>
<path d="M90.6451 8.34644H87.751V23.971H90.6451V8.34644Z" fill="#41283D"/>
<path d="M90.7161 24.0424H87.6821V8.27515H90.7161V24.0424ZM87.822 23.8997H90.5753V8.4178H87.822V23.8997Z" fill="#41283D"/>
<path d="M96.297 23.971H93.4404V16.1573C93.4404 11.835 96.853 8.34644 101.08 8.34644C105.308 8.34644 108.72 11.835 108.72 16.1573V23.971H105.864V16.1573C105.864 13.4663 103.713 11.2653 101.08 11.2653C98.4477 11.2653 96.2943 13.4663 96.2943 16.1573V23.971H96.297Z" fill="#41283D"/>
<path d="M108.793 24.0424H105.798V16.1574C105.798 13.4979 103.684 11.3367 101.082 11.3367C98.481 11.3367 96.3687 13.5006 96.3687 16.1574V24.0424H93.374V16.1574C93.374 11.8091 96.8341 8.27515 101.084 8.27515C105.334 8.27515 108.795 11.8119 108.795 16.1574V24.0424H108.792H108.793ZM105.936 23.8997H108.652V16.1574C108.652 11.8888 105.257 8.4178 101.082 8.4178C96.9082 8.4178 93.5121 11.8916 93.5121 16.1574V23.8997H96.2279V16.1574C96.2279 13.421 98.4069 11.194 101.082 11.194C103.756 11.194 105.935 13.421 105.935 16.1574V23.8997H105.936Z" fill="#41283D"/>
<path d="M84.373 0.244629C84.4041 2.8986 86.5155 5.0403 89.1197 5.0403C91.724 5.0403 93.8335 2.8986 93.8637 0.244629H84.373Z" fill="#EE0C5D"/>
<path d="M112.291 10.8039H109.436V7.88498H112.291V0.0712891H115.147V7.88498H119.931V10.8039H115.147" fill="#41283D"/>
<path d="M112.22 10.8752H109.366V7.81369H112.22V0H115.214V7.81369H119.997V10.8752H115.214M115.074 10.7326H119.858V7.95634H115.074V0.142657H112.358V7.95634H109.5V10.7326H112.358" fill="#41283D"/>
<path d="M120 24.0903C115.772 24.0903 112.36 20.6017 112.36 16.2794V10.2026H115.216V16.2794C115.216 18.9705 117.367 21.1714 120 21.1714" fill="#41283D"/>
<path d="M41.4061 33.8208H40.4679L40.0683 32.6397H37.7768L37.3772 33.8208H36.4399L38.5678 27.9395H39.2773L41.4061 33.8208ZM38.0301 31.8792H39.8159L38.9189 29.2688L38.0301 31.8792Z" fill="#41283D"/>
<path d="M45.573 27.8894C46.1116 27.8894 46.5651 28.045 46.9345 28.3562C47.304 28.6675 47.5408 29.1149 47.6441 29.6985H46.7471C46.6822 29.3956 46.5514 29.152 46.3557 28.9676C46.1601 28.7833 45.8994 28.6906 45.573 28.6906C45.2191 28.6906 44.9338 28.8092 44.7171 29.0454C44.6412 29.1223 44.5809 29.2075 44.5379 29.3011C44.494 29.3947 44.4593 29.5095 44.4318 29.6438C44.4044 29.7791 44.387 29.9449 44.3788 30.1431C44.3706 30.3414 44.3669 30.5869 44.3669 30.8787C44.3669 31.1705 44.3706 31.4159 44.3788 31.6142C44.387 31.8124 44.4044 31.9791 44.4318 32.1144C44.4593 32.2496 44.494 32.3636 44.5379 32.4571C44.5818 32.5507 44.6412 32.6359 44.7171 32.7128C44.9347 32.95 45.22 33.0676 45.573 33.0676C45.8994 33.0676 46.1601 32.975 46.3557 32.7906C46.5514 32.6063 46.6822 32.3627 46.7471 32.0597H47.6441C47.5408 32.6433 47.303 33.0908 46.9309 33.402C46.5587 33.7133 46.1061 33.8689 45.573 33.8689C45.252 33.8689 44.9695 33.8179 44.7254 33.716C44.4812 33.6141 44.2636 33.4669 44.0734 33.2742C43.9316 33.1306 43.8219 32.9824 43.7433 32.8277C43.6646 32.6739 43.6061 32.5044 43.5677 32.32C43.5293 32.1357 43.5065 31.9263 43.4982 31.692C43.49 31.4576 43.4863 31.1871 43.4863 30.8787C43.4863 30.5702 43.49 30.2988 43.4982 30.0653C43.5065 29.831 43.5293 29.6225 43.5677 29.4373C43.6061 29.2529 43.6646 29.0834 43.7433 28.9296C43.8219 28.7759 43.9326 28.6267 44.0734 28.4831C44.2636 28.2905 44.4812 28.1432 44.7254 28.0413C44.9704 27.9394 45.253 27.8884 45.573 27.8884V27.8894Z" fill="#41283D"/>
<path d="M49.3898 30.0533C49.5306 29.8939 49.6943 29.7754 49.879 29.6985C50.0637 29.6216 50.2621 29.5827 50.4743 29.5827C50.6864 29.5827 50.8775 29.616 51.0494 29.6818C51.2204 29.7476 51.3686 29.8421 51.4938 29.9625C51.6511 30.1227 51.7599 30.2997 51.8203 30.4951C51.8797 30.6906 51.9099 30.9073 51.9099 31.1436V33.8198H51.0778V31.2668C51.0778 30.9416 50.9973 30.7054 50.8373 30.5563C50.6773 30.4071 50.4798 30.333 50.2466 30.333C50.0134 30.333 49.8113 30.409 49.6431 30.56C49.4748 30.7119 49.3907 30.9472 49.3907 31.2658V33.8188H48.5586V27.9375H49.3907V30.0523L49.3898 30.0533Z" fill="#41283D"/>
<path d="M53.6379 31.97C53.6379 32.3331 53.7275 32.6203 53.9067 32.8287C54.086 33.0381 54.3475 33.1427 54.6895 33.1427C54.9226 33.1427 55.1119 33.1085 55.2564 33.0399C55.4 32.9714 55.5463 32.8621 55.6926 32.7138L56.2229 33.2178C56.1141 33.328 56.0071 33.4225 55.9011 33.5031C55.795 33.5828 55.6807 33.6504 55.5591 33.705C55.4365 33.7606 55.303 33.8014 55.1595 33.8292C55.0159 33.857 54.8541 33.8708 54.6748 33.8708C54.4142 33.8708 54.1701 33.8338 53.9452 33.7597C53.7193 33.6856 53.5236 33.5642 53.3581 33.3966C53.1926 33.2289 53.06 33.0075 52.9622 32.7314C52.8643 32.4563 52.8149 32.1201 52.8149 31.7236C52.8149 31.0353 52.974 30.5064 53.2923 30.1377C53.6105 29.769 54.0357 29.5837 54.5688 29.5837C54.8458 29.5837 55.0936 29.6319 55.3104 29.7282C55.528 29.8246 55.7109 29.9626 55.8608 30.1414C56.0099 30.3202 56.1242 30.5351 56.2037 30.7861C56.2824 31.0372 56.3217 31.3132 56.3217 31.6161V31.9709H53.6388L53.6379 31.97ZM55.4969 31.3836C55.4859 31.2567 55.4749 31.1539 55.464 31.0742C55.453 30.9946 55.4256 30.9075 55.3826 30.8139C55.3122 30.6546 55.207 30.5258 55.0689 30.4295C54.9299 30.3332 54.7635 30.285 54.5678 30.285C54.3722 30.285 54.1966 30.3332 54.0585 30.4295C53.9196 30.5258 53.8153 30.6537 53.7449 30.8139C53.701 30.9075 53.6745 30.9946 53.6635 31.0742C53.6525 31.1539 53.6443 31.2576 53.6388 31.3836H55.4978H55.4969Z" fill="#41283D"/>
<path d="M58.9133 29.5829C59.2013 29.5829 59.4509 29.6283 59.6631 29.7191C59.8752 29.8099 60.0791 29.9599 60.2748 30.1693L59.7042 30.7306C59.5735 30.588 59.45 30.4861 59.333 30.425C59.2159 30.3647 59.076 30.3342 58.9133 30.3342C58.5868 30.3342 58.3317 30.4583 58.147 30.7056C58.0546 30.8214 57.9906 30.9576 57.955 31.1142C57.9193 31.2716 57.9019 31.4736 57.9019 31.7209C57.9019 31.9682 57.9193 32.173 57.955 32.3323C57.9906 32.4916 58.0537 32.6296 58.147 32.7454C58.3317 32.9928 58.5877 33.1169 58.9133 33.1169C59.076 33.1169 59.2159 33.0863 59.333 33.0261C59.45 32.9659 59.5735 32.864 59.7042 32.7204L60.2748 33.2744C60.0791 33.4837 59.8752 33.6347 59.6631 33.7283C59.4509 33.8218 59.2013 33.8691 58.9133 33.8691C58.6792 33.8691 58.4524 33.8302 58.232 33.7533C58.0117 33.6764 57.816 33.5523 57.645 33.3818C57.474 33.2114 57.335 32.9891 57.2289 32.7167C57.1229 32.4444 57.0698 32.1127 57.0698 31.7209C57.0698 31.3291 57.1229 30.9984 57.2289 30.726C57.335 30.4537 57.4731 30.2332 57.645 30.0646C57.816 29.8969 58.0117 29.7737 58.232 29.6968C58.4524 29.62 58.6792 29.5811 58.9133 29.5811V29.5829Z" fill="#41283D"/>
<path d="M61.9063 31.5652L63.5129 29.6319H64.5243L63.0887 31.2761L64.7035 33.8208H63.6757L62.5181 31.8875L61.9063 32.5897V33.8208H61.0742V27.9395H61.9063V31.5661V31.5652Z" fill="#41283D"/>
<path d="M69.4729 27.9385C69.7555 27.9385 70.0115 27.9839 70.2392 28.0746C70.4669 28.1654 70.6635 28.2896 70.8262 28.4461C70.989 28.6027 71.1143 28.7916 71.2012 29.0121C71.288 29.2326 71.3319 29.4688 71.3319 29.7226C71.3319 29.9764 71.288 30.2182 71.2012 30.4331C71.1143 30.648 70.989 30.8351 70.8262 30.9945C70.6635 31.1547 70.4678 31.2779 70.2392 31.3659C70.0106 31.4539 69.7555 31.4984 69.4729 31.4984H68.1525V33.8198H67.272V27.9385H69.4738H69.4729ZM68.1525 28.7398V30.698H69.4245C69.7344 30.698 69.9832 30.6137 70.1706 30.4461C70.3581 30.2784 70.4523 30.0366 70.4523 29.7235C70.4523 29.4104 70.359 29.1677 70.1706 28.9964C69.9832 28.8259 69.7344 28.7407 69.4245 28.7407H68.1525V28.7398Z" fill="#41283D"/>
<path d="M73.5832 29.5825C73.8657 29.5825 74.109 29.6298 74.3129 29.7233C74.5168 29.8169 74.6869 29.9355 74.8222 30.0781C75.0179 30.2875 75.1487 30.5255 75.2136 30.7923C75.2785 31.0591 75.3114 31.3694 75.3114 31.7214C75.3114 32.0735 75.2785 32.3921 75.2136 32.6589C75.1487 32.9257 75.0179 33.1638 74.8222 33.3731C74.686 33.5167 74.5168 33.6343 74.3129 33.7279C74.109 33.8215 73.8657 33.8687 73.5832 33.8687C73.3006 33.8687 73.0583 33.8215 72.8572 33.7279C72.656 33.6343 72.4877 33.5158 72.3515 33.3731C72.1558 33.1638 72.0251 32.9257 71.9601 32.6589C71.8952 32.3921 71.8623 32.079 71.8623 31.7214C71.8623 31.3639 71.8952 31.0591 71.9601 30.7923C72.0251 30.5255 72.1558 30.2875 72.3515 30.0781C72.4877 29.9355 72.656 29.8169 72.8572 29.7233C73.0583 29.6298 73.2997 29.5825 73.5832 29.5825ZM73.5832 30.3338C73.3381 30.3338 73.137 30.4134 72.9797 30.5737C72.8544 30.7006 72.7758 30.8655 72.7429 31.0693C72.7099 31.2731 72.6944 31.4908 72.6944 31.7224C72.6944 31.954 72.7109 32.1716 72.7429 32.3754C72.7758 32.5792 72.8544 32.7441 72.9797 32.871C73.1425 33.0359 73.3436 33.1193 73.5832 33.1193C73.8228 33.1193 74.0322 33.0368 74.195 32.871C74.3202 32.7441 74.3988 32.5792 74.4318 32.3754C74.4647 32.1716 74.4802 31.954 74.4802 31.7224C74.4802 31.4908 74.4638 31.274 74.4318 31.0693C74.3988 30.8655 74.3202 30.7006 74.195 30.5737C74.0377 30.4144 73.8337 30.3338 73.5832 30.3338Z" fill="#41283D"/>
<path d="M77.2927 28.8066H76.4121V27.9146H77.2927V28.8066ZM77.2689 33.8209H76.4368V29.6329H77.2689V33.8209Z" fill="#41283D"/>
<path d="M80.5059 29.5827C80.718 29.5827 80.9091 29.6161 81.0801 29.6818C81.2511 29.7476 81.3992 29.8421 81.5245 29.9625C81.6818 30.1228 81.7906 30.2997 81.8501 30.4952C81.9104 30.6906 81.9397 30.9074 81.9397 31.1436V33.8198H81.1085V31.2668C81.1085 30.9417 81.028 30.7054 80.868 30.5563C80.707 30.4072 80.5105 30.333 80.2764 30.333C80.0423 30.333 79.842 30.409 79.6728 30.56C79.5046 30.7119 79.4205 30.9472 79.4205 31.2659V33.8189H78.5884V29.6309H79.404V30.0524C79.5458 29.893 79.7122 29.7745 79.906 29.6976C80.099 29.6207 80.2983 29.5818 80.505 29.5818L80.5059 29.5827Z" fill="#41283D"/>
<path d="M83.987 29.6319H84.7862V30.2766H83.987V32.6147C83.987 32.9399 84.1398 33.102 84.4442 33.102H84.7862V33.8208H84.2888C84.0931 33.8208 83.9249 33.7893 83.7831 33.7254C83.6423 33.6624 83.5253 33.5772 83.4329 33.4697C83.3406 33.3623 83.2711 33.2381 83.2254 33.0983C83.1787 32.9575 83.1559 32.8102 83.1559 32.6564V30.2775H82.6831V29.6328H83.1559V28.4351H83.987V29.6328V29.6319Z" fill="#41283D"/>
<path d="M89.4509 27.8894C89.9885 27.8894 90.443 28.045 90.8124 28.3562C91.1818 28.6675 91.4187 29.1149 91.522 29.6985H90.625C90.56 29.3956 90.4293 29.152 90.2336 28.9676C90.0379 28.7833 89.7764 28.6906 89.4509 28.6906C89.097 28.6906 88.8117 28.8092 88.595 29.0454C88.5191 29.1223 88.4587 29.2075 88.4158 29.3011C88.3719 29.3947 88.3371 29.5095 88.3097 29.6438C88.2822 29.7791 88.2649 29.9449 88.2567 30.1431C88.2484 30.3414 88.2448 30.5869 88.2448 30.8787C88.2448 31.1705 88.2484 31.4159 88.2567 31.6142C88.2649 31.8124 88.2822 31.9791 88.3097 32.1144C88.3371 32.2496 88.3719 32.3636 88.4158 32.4571C88.4597 32.5507 88.5191 32.6359 88.595 32.7128C88.8126 32.95 89.0979 33.0676 89.4509 33.0676C89.7764 33.0676 90.0379 32.975 90.2336 32.7906C90.4293 32.6063 90.56 32.3627 90.625 32.0597H91.522C91.4187 32.6433 91.1809 33.0908 90.8087 33.402C90.4357 33.7133 89.9839 33.8689 89.4509 33.8689C89.1299 33.8689 88.8473 33.8179 88.6032 33.716C88.3581 33.6141 88.1414 33.4669 87.9503 33.2742C87.8086 33.1306 87.6989 32.9824 87.6202 32.8277C87.5416 32.6739 87.4831 32.5044 87.4447 32.32C87.4062 32.1357 87.3834 31.9263 87.3752 31.692C87.3669 31.4576 87.3633 31.1871 87.3633 30.8787C87.3633 30.5702 87.3678 30.2988 87.3752 30.0653C87.3834 29.831 87.4062 29.6225 87.4447 29.4373C87.4831 29.2529 87.5416 29.0834 87.6202 28.9296C87.6989 28.7759 87.8086 28.6267 87.9503 28.4831C88.1405 28.2905 88.3581 28.1432 88.6032 28.0413C88.8473 27.9394 89.1308 27.8884 89.4509 27.8884V27.8894Z" fill="#41283D"/>
<path d="M93.8796 29.5825C94.1622 29.5825 94.4054 29.6298 94.6093 29.7233C94.8132 29.8169 94.9833 29.9355 95.1186 30.0781C95.3143 30.2875 95.4451 30.5255 95.51 30.7923C95.5749 31.0591 95.6078 31.3694 95.6078 31.7214C95.6078 32.0735 95.5749 32.3921 95.51 32.6589C95.4451 32.9257 95.3143 33.1638 95.1186 33.3731C94.9824 33.5167 94.8132 33.6343 94.6093 33.7279C94.4054 33.8215 94.1622 33.8687 93.8796 33.8687C93.5971 33.8687 93.3547 33.8215 93.1536 33.7279C92.9524 33.6343 92.7842 33.5158 92.6479 33.3731C92.4522 33.1638 92.3215 32.9257 92.2565 32.6589C92.1916 32.3921 92.1587 32.079 92.1587 31.7214C92.1587 31.3639 92.1916 31.0591 92.2565 30.7923C92.3215 30.5255 92.4522 30.2875 92.6479 30.0781C92.7842 29.9355 92.9524 29.8169 93.1536 29.7233C93.3547 29.6298 93.5961 29.5825 93.8796 29.5825ZM93.8796 30.3338C93.6345 30.3338 93.4334 30.4134 93.2761 30.5737C93.1508 30.7006 93.0722 30.8655 93.0393 31.0693C93.0063 31.2731 92.9908 31.4908 92.9908 31.7224C92.9908 31.954 93.0072 32.1716 93.0393 32.3754C93.0722 32.5792 93.1508 32.7441 93.2761 32.871C93.4389 33.0359 93.64 33.1193 93.8796 33.1193C94.1192 33.1193 94.3286 33.0368 94.4913 32.871C94.6166 32.7441 94.6953 32.5792 94.7282 32.3754C94.7611 32.1716 94.7766 31.954 94.7766 31.7224C94.7766 31.4908 94.7602 31.274 94.7282 31.0693C94.6953 30.8655 94.6166 30.7006 94.4913 30.5737C94.3341 30.4144 94.1302 30.3338 93.8796 30.3338Z" fill="#41283D"/>
<path d="M100.957 29.5829C101.169 29.5829 101.364 29.6163 101.544 29.682C101.723 29.7478 101.876 29.8423 102 29.9627C102.157 30.123 102.271 30.2999 102.338 30.4954C102.406 30.6908 102.44 30.9076 102.44 31.1438V33.82H101.608V31.267C101.608 30.9419 101.527 30.7056 101.367 30.5565C101.207 30.4074 101.01 30.3332 100.776 30.3332C100.662 30.3332 100.553 30.3508 100.45 30.387C100.347 30.4231 100.256 30.4778 100.177 30.5519C100.097 30.626 100.035 30.7195 99.9891 30.8325C99.9425 30.9456 99.9196 31.0762 99.9196 31.2253V33.8191H99.0885V31.2661C99.0885 30.9409 99.008 30.7047 98.848 30.5556C98.687 30.4064 98.4904 30.3323 98.2563 30.3323C98.0223 30.3323 97.822 30.4083 97.6529 30.5593C97.4846 30.7112 97.4005 30.9465 97.4005 31.2651V33.8181H96.5684V29.6302H97.384V30.0516C97.5257 29.8979 97.6922 29.7802 97.886 29.7006C98.0789 29.6209 98.2783 29.5811 98.4849 29.5811C99.0071 29.5811 99.3984 29.7849 99.6591 30.1924C99.991 29.7849 100.423 29.5811 100.956 29.5811L100.957 29.5829Z" fill="#41283D"/>
<path d="M105.467 29.5829C105.679 29.5829 105.872 29.6163 106.045 29.682C106.219 29.7478 106.364 29.8395 106.478 29.9544C106.576 30.059 106.656 30.1776 106.718 30.3092C106.781 30.4416 106.828 30.5834 106.861 30.7344C106.894 30.8863 106.916 31.0456 106.926 31.2133C106.936 31.3809 106.942 31.5505 106.942 31.7209C106.942 31.8913 106.937 32.0609 106.926 32.2285C106.915 32.3962 106.893 32.5574 106.861 32.7121C106.828 32.8659 106.781 33.0094 106.718 33.1419C106.656 33.2744 106.576 33.3929 106.478 33.4967C106.364 33.6125 106.221 33.7033 106.05 33.769C105.879 33.8348 105.687 33.8682 105.476 33.8682C105.253 33.8682 105.054 33.8348 104.88 33.769C104.707 33.7033 104.543 33.5764 104.391 33.3892V35.5124H103.559V29.6311H104.375V30.0766C104.532 29.884 104.698 29.7534 104.872 29.6839C105.046 29.6153 105.244 29.5811 105.467 29.5811L105.467 29.5829ZM105.254 30.3342C105.064 30.3342 104.912 30.3712 104.798 30.4453C104.684 30.5194 104.597 30.6204 104.537 30.7464C104.477 30.8733 104.438 31.0206 104.42 31.1883C104.4 31.3559 104.391 31.5338 104.391 31.7209C104.391 31.908 104.4 32.0859 104.42 32.2535C104.439 32.4212 104.478 32.5704 104.537 32.7C104.597 32.8297 104.685 32.9316 104.798 33.0057C104.911 33.0798 105.064 33.1169 105.254 33.1169C105.445 33.1169 105.589 33.0798 105.703 33.0057C105.818 32.9316 105.905 32.8297 105.964 32.7C106.023 32.5704 106.063 32.4221 106.082 32.2535C106.101 32.0859 106.11 31.908 106.11 31.7209C106.11 31.5338 106.101 31.3559 106.082 31.1883C106.063 31.0206 106.023 30.8733 105.964 30.7464C105.904 30.6195 105.817 30.5194 105.703 30.4453C105.59 30.3712 105.439 30.3342 105.254 30.3342Z" fill="#41283D"/>
<path d="M109.242 29.5825C109.818 29.5825 110.246 29.7039 110.526 29.9456C110.806 30.1883 110.946 30.5459 110.946 31.0193V33.8196H110.13V33.4398C109.978 33.5936 109.82 33.7038 109.658 33.7705C109.495 33.8363 109.285 33.8696 109.029 33.8696C108.773 33.8696 108.549 33.8381 108.373 33.7742C108.196 33.7112 108.045 33.6158 107.92 33.4889C107.703 33.2573 107.594 32.9572 107.594 32.5885C107.594 32.2198 107.714 31.9475 107.952 31.7214C108.192 31.4954 108.55 31.3824 109.028 31.3824H110.113V31.085C110.113 30.8155 110.043 30.6172 109.904 30.4903C109.765 30.3634 109.533 30.3004 109.208 30.3004C108.985 30.3004 108.808 30.3319 108.677 30.3958C108.547 30.4588 108.421 30.5654 108.302 30.7136L107.764 30.193C107.862 30.0772 107.96 29.9808 108.061 29.904C108.162 29.8271 108.27 29.7632 108.387 29.7141C108.504 29.664 108.633 29.6298 108.771 29.6112C108.91 29.5918 109.066 29.5825 109.24 29.5825H109.242ZM109.16 31.9697C108.654 31.9697 108.402 32.1707 108.402 32.5728C108.402 32.7654 108.463 32.9127 108.586 33.0146C108.708 33.1165 108.908 33.1675 109.185 33.1675C109.332 33.1675 109.466 33.1536 109.589 33.1258C109.711 33.098 109.827 33.0322 109.936 32.9275C110.055 32.8117 110.115 32.6052 110.115 32.3078V31.9688H109.16V31.9697Z" fill="#41283D"/>
<path d="M113.98 29.5827C114.192 29.5827 114.383 29.6161 114.554 29.6818C114.725 29.7476 114.873 29.8421 114.998 29.9625C115.155 30.1228 115.264 30.2997 115.324 30.4952C115.384 30.6906 115.413 30.9074 115.413 31.1436V33.8198H114.582V31.2668C114.582 30.9417 114.502 30.7054 114.342 30.5563C114.181 30.4072 113.984 30.333 113.75 30.333C113.516 30.333 113.316 30.409 113.147 30.56C112.978 30.7119 112.894 30.9472 112.894 31.2659V33.8189H112.062V29.6309H112.878V30.0524C113.019 29.893 113.186 29.7745 113.38 29.6976C113.573 29.6207 113.772 29.5818 113.979 29.5818L113.98 29.5827Z" fill="#41283D"/>
<path d="M117.82 34.6881C117.744 34.9086 117.644 35.0818 117.519 35.2087C117.404 35.3245 117.274 35.4042 117.127 35.4486C116.98 35.4922 116.828 35.5144 116.671 35.5144H116.336V34.7548H116.548C116.722 34.7548 116.85 34.7233 116.931 34.6594C117.013 34.5964 117.083 34.4787 117.144 34.3083L117.38 33.6228L115.938 29.6331H116.818L117.805 32.5825L118.767 29.6331H119.655L117.821 34.689L117.82 34.6881Z" fill="#41283D"/>
</svg>
